0
SECTION
2
ENTITIES
0
ARC
8
0
10
8.0000
20
8.0000
40
5.2000
50
-180.0000
51
-90.0000
0
LINE
8
0
10
8.0000
20
2.8000
11
102.0000
21
2.8000
0
ARC
8
0
10
102.0000
20
8.0000
40
5.2000
50
-90.0000
51
-0.0000
0
LINE
8
0
10
107.2000
20
8.0000
11
107.2000
21
12.8000
0
LINE
8
0
10
105.2000
20
12.8000
11
107.2000
21
12.8000
0
LINE
8
0
10
105.2000
20
23.2000
11
105.2000
21
12.8000
0
LINE
8
0
10
105.2000
20
23.2000
11
107.2000
21
23.2000
0
LINE
8
0
10
107.2000
20
23.2000
11
107.2000
21
46.8000
0
LINE
8
0
10
105.2000
20
46.8000
11
107.2000
21
46.8000
0
LINE
8
0
10
105.2000
20
57.2000
11
105.2000
21
46.8000
0
LINE
8
0
10
105.2000
20
57.2000
11
107.2000
21
57.2000
0
LINE
8
0
10
107.2000
20
57.2000
11
107.2000
21
62.0000
0
ARC
8
0
10
102.0000
20
62.0000
40
5.2000
50
-360.0000
51
-270.0000
0
LINE
8
0
10
102.0000
20
67.2000
11
8.0000
21
67.2000
0
ARC
8
0
10
8.0000
20
62.0000
40
5.2000
50
-270.0000
51
-180.0000
0
LINE
8
0
10
2.8000
20
62.0000
11
2.8000
21
57.2000
0
LINE
8
0
10
2.8000
20
57.2000
11
4.8000
21
57.2000
0
LINE
8
0
10
4.8000
20
57.2000
11
4.8000
21
46.8000
0
LINE
8
0
10
2.8000
20
46.8000
11
4.8000
21
46.8000
0
LINE
8
0
10
2.8000
20
46.8000
11
2.8000
21
23.2000
0
LINE
8
0
10
2.8000
20
23.2000
11
4.8000
21
23.2000
0
LINE
8
0
10
4.8000
20
23.2000
11
4.8000
21
12.8000
0
LINE
8
0
10
2.8000
20
12.8000
11
4.8000
21
12.8000
0
LINE
8
0
10
2.8000
20
12.8000
11
2.8000
21
8.0000
0
CIRCLE
8
0
10
7.0000
20
7.0000
40
1.4500
0
CIRCLE
8
0
10
54.4728
20
12.1066
40
0.9000
0
CIRCLE
8
0
10
53.3478
20
16.9783
40
0.9000
0
CIRCLE
8
0
10
61.0125
20
11.5641
40
1.0000
0
CIRCLE
8
0
10
66.6522
20
14.9191
40
0.9000
0
CIRCLE
8
0
10
78.0000
20
13.5000
40
1.0000
0
CIRCLE
8
0
10
71.7500
20
15.5000
40
0.9000
0
CIRCLE
8
0
10
84.2500
20
15.5000
40
0.9000
0
CIRCLE
8
0
10
89.3478
20
14.9191
40
0.9000
0
CIRCLE
8
0
10
94.9875
20
11.5641
40
1.0000
0
CIRCLE
8
0
10
101.5272
20
12.1066
40
0.9000
0
CIRCLE
8
0
10
102.6522
20
16.9783
40
0.9000
0
CIRCLE
8
0
10
58.9875
20
20.3333
40
1.0000
0
CIRCLE
8
0
10
65.5272
20
19.7908
40
0.9000
0
CIRCLE
8
0
10
71.7500
20
20.5000
40
0.9000
0
CIRCLE
8
0
10
78.0000
20
22.5000
40
1.0000
0
CIRCLE
8
0
10
84.2500
20
20.5000
40
0.9000
0
CIRCLE
8
0
10
90.4728
20
19.7908
40
0.9000
0
CIRCLE
8
0
10
97.0125
20
20.3333
40
1.0000
0
CIRCLE
8
0
10
104.5000
20
26.5000
40
1.4500
0
LINE
8
0
10
18.5000
20
31.0000
11
36.5000
21
31.0000
0
LINE
8
0
10
18.5000
20
41.0000
11
18.5000
21
31.0000
0
LINE
8
0
10
18.5000
20
41.0000
11
36.5000
21
41.0000
0
LINE
8
0
10
36.5000
20
41.0000
11
36.5000
21
31.0000
0
LINE
8
0
10
38.5500
20
28.0000
11
41.7500
21
28.0000
0
LINE
8
0
10
38.5500
20
42.0000
11
38.5500
21
28.0000
0
LINE
8
0
10
38.5500
20
42.0000
11
41.7500
21
42.0000
0
LINE
8
0
10
41.7500
20
42.0000
11
41.7500
21
28.0000
0
LINE
8
0
10
49.8000
20
28.0000
11
52.8000
21
28.0000
0
LINE
8
0
10
49.8000
20
42.0000
11
49.8000
21
28.0000
0
LINE
8
0
10
49.8000
20
42.0000
11
52.8000
21
42.0000
0
LINE
8
0
10
52.8000
20
42.0000
11
52.8000
21
28.0000
0
CIRCLE
8
0
10
41.3800
20
47.3500
40
0.6000
0
CIRCLE
8
0
10
41.3800
20
49.8900
40
0.6000
0
CIRCLE
8
0
10
7.0000
20
63.0000
40
1.4500
0
CIRCLE
8
0
10
41.3800
20
52.4300
40
0.6000
0
CIRCLE
8
0
10
41.3800
20
54.9700
40
0.6000
0
CIRCLE
8
0
10
41.3800
20
57.5100
40
0.6000
0
CIRCLE
8
0
10
41.3800
20
60.0500
40
0.6000
0
CIRCLE
8
0
10
41.3800
20
62.5900
40
0.6000
0
CIRCLE
8
0
10
41.3800
20
65.1300
40
0.6000
0
CIRCLE
8
0
10
56.6200
20
47.3500
40
0.6000
0
CIRCLE
8
0
10
56.6200
20
49.8900
40
0.6000
0
LINE
8
0
10
94.6100
20
36.6100
11
97.2100
21
36.6100
0
LINE
8
0
10
94.6100
20
55.3900
11
94.6100
21
36.6100
0
LINE
8
0
10
94.6100
20
55.3900
11
97.2100
21
55.3900
0
LINE
8
0
10
97.2100
20
55.3900
11
97.2100
21
36.6100
0
CIRCLE
8
0
10
56.6200
20
52.4300
40
0.6000
0
CIRCLE
8
0
10
56.6200
20
54.9700
40
0.6000
0
CIRCLE
8
0
10
56.6200
20
57.5100
40
0.6000
0
CIRCLE
8
0
10
56.6200
20
60.0500
40
0.6000
0
CIRCLE
8
0
10
56.6200
20
62.5900
40
0.6000
0
CIRCLE
8
0
10
56.6200
20
65.1300
40
0.6000
0
CIRCLE
8
0
10
104.0000
20
64.5000
40
1.4500
0
ENDSEC
0
EOF
